<svg width="36" height="36" viewBox="0 0 36 36" fill="none" xmlns="http://www.w3.org/2000/svg">
<path d="M17.9999 3.375C17.7016 3.375 17.4154 3.49353 17.2045 3.7045C16.9935 3.91548 16.8749 4.20163 16.8749 4.5V12.375C16.8749 12.6734 16.9935 12.9595 17.2045 13.1705C17.4154 13.3815 17.7016 13.5 17.9999 13.5C18.9905 13.5002 19.9533 13.8273 20.7391 14.4304C21.5248 15.0336 22.0896 15.8792 22.3458 16.836C22.602 17.7929 22.5354 18.8076 22.1562 19.7227C21.777 20.6378 21.1064 21.4022 20.2485 21.8974C19.3906 22.3926 18.3933 22.5908 17.4112 22.4615C16.4291 22.3321 15.5172 21.8823 14.8168 21.1818C14.1164 20.4813 13.6667 19.5693 13.5374 18.5872C13.4082 17.6052 13.6065 16.6079 14.1018 15.75C14.1757 15.622 14.2237 15.4808 14.243 15.3342C14.2623 15.1877 14.2525 15.0389 14.2142 14.8961C14.176 14.7534 14.11 14.6196 14.02 14.5024C13.93 14.3852 13.8178 14.2868 13.6898 14.213L6.86948 10.2755C6.74151 10.2016 6.60023 10.1536 6.45372 10.1343C6.30721 10.115 6.15834 10.1248 6.0156 10.1631C5.87287 10.2013 5.73907 10.2673 5.62185 10.3573C5.50464 10.4473 5.40629 10.5595 5.33245 10.6875C3.72275 13.4756 3.07799 16.7169 3.49816 19.9087C3.91832 23.1006 5.37992 26.0646 7.6563 28.3411C9.93267 30.6176 12.8966 32.0794 16.0884 32.4998C19.2802 32.9202 22.5216 32.2756 25.3098 30.6661C28.0979 29.0566 30.2771 26.5721 31.5094 23.5978C32.7416 20.6236 32.958 17.3259 32.1251 14.2161C31.2922 11.1064 29.4564 8.35833 26.9025 6.39821C24.3486 4.43808 21.2193 3.37541 17.9999 3.375ZM6.7626 12.8109L11.6718 15.6459C11.3925 16.3993 11.2496 17.1965 11.2499 18C11.2499 18.2152 11.2612 18.4219 11.2809 18.6356L5.80495 20.1094C5.37791 17.6357 5.71185 15.0907 6.7626 12.8109ZM6.38713 22.2764L11.8715 20.8083C12.33 21.8078 13.0253 22.6804 13.8972 23.3506C14.769 24.0208 15.7911 24.4683 16.8749 24.6544V30.323C14.546 30.1071 12.3255 29.2371 10.4697 27.8133C8.61402 26.3895 7.19871 24.4701 6.38713 22.2764ZM19.1249 30.323V24.6544C20.6972 24.3879 22.1243 23.5734 23.1533 22.3552C24.1824 21.1371 24.7469 19.5939 24.7469 17.9993C24.7469 16.4047 24.1824 14.8615 23.1533 13.6434C22.1243 12.4252 20.6972 11.6107 19.1249 11.3442V5.67563C22.1993 5.95651 25.0576 7.37634 27.1389 9.65642C29.2201 11.9365 30.374 14.9122 30.374 17.9993C30.374 21.0864 29.2201 24.0621 27.1389 26.3422C25.0576 28.6223 22.1993 30.0421 19.1249 30.323Z" fill="#2B7979"/>
</svg>
