<svg width="36" height="36" viewBox="0 0 36 36" fill="none" xmlns="http://www.w3.org/2000/svg">
<path d="M32.625 29.25C32.625 29.5484 32.5065 29.8345 32.2955 30.0455C32.0845 30.2565 31.7984 30.375 31.5 30.375H4.5C4.20163 30.375 3.91548 30.2565 3.7045 30.0455C3.49353 29.8345 3.375 29.5484 3.375 29.25V6.75C3.375 6.45163 3.49353 6.16548 3.7045 5.95451C3.91548 5.74353 4.20163 5.625 4.5 5.625C4.79837 5.625 5.08452 5.74353 5.29549 5.95451C5.50647 6.16548 5.625 6.45163 5.625 6.75V22.0345L12.7041 14.9541C12.8085 14.8495 12.9326 14.7665 13.0692 14.7099C13.2058 14.6533 13.3522 14.6241 13.5 14.6241C13.6478 14.6241 13.7942 14.6533 13.9308 14.7099C14.0674 14.7665 14.1915 14.8495 14.2959 14.9541L18 18.6595L25.4095 11.25H22.5C22.2016 11.25 21.9155 11.1315 21.7045 10.9205C21.4935 10.7095 21.375 10.4234 21.375 10.125C21.375 9.82663 21.4935 9.54048 21.7045 9.3295C21.9155 9.11853 22.2016 9 22.5 9H28.125C28.4234 9 28.7095 9.11853 28.9205 9.3295C29.1315 9.54048 29.25 9.82663 29.25 10.125V15.75C29.25 16.0484 29.1315 16.3345 28.9205 16.5455C28.7095 16.7565 28.4234 16.875 28.125 16.875C27.8266 16.875 27.5405 16.7565 27.3295 16.5455C27.1185 16.3345 27 16.0484 27 15.75V12.8405L18.7959 21.0459C18.6915 21.1505 18.5674 21.2335 18.4308 21.2901C18.2942 21.3467 18.1478 21.3759 18 21.3759C17.8522 21.3759 17.7058 21.3467 17.5692 21.2901C17.4326 21.2335 17.3085 21.1505 17.2041 21.0459L13.5 17.3405L5.625 25.2155V28.125H31.5C31.7984 28.125 32.0845 28.2435 32.2955 28.4545C32.5065 28.6655 32.625 28.9516 32.625 29.25Z" fill="#2B7979"/>
</svg>
