<svg width="36" height="36" viewBox="0 0 36 36" fill="none" xmlns="http://www.w3.org/2000/svg">
<path d="M30.375 5.625H19.125V3.375C19.125 3.07663 19.0065 2.79048 18.7955 2.5795C18.5845 2.36853 18.2984 2.25 18 2.25C17.7016 2.25 17.4155 2.36853 17.2045 2.5795C16.9935 2.79048 16.875 3.07663 16.875 3.375V5.625H5.625C5.02826 5.625 4.45597 5.86205 4.03401 6.28401C3.61205 6.70597 3.375 7.27826 3.375 7.875V24.75C3.375 25.3467 3.61205 25.919 4.03401 26.341C4.45597 26.7629 5.02826 27 5.625 27H11.16L8.12109 30.7969C7.93461 31.03 7.84837 31.3276 7.88133 31.6243C7.9143 31.921 8.06377 32.1924 8.29688 32.3789C8.52998 32.5654 8.82761 32.6516 9.1243 32.6187C9.42098 32.5857 9.69243 32.4362 9.87891 32.2031L14.04 27H21.96L26.1211 32.2031C26.2134 32.3185 26.3276 32.4146 26.4571 32.4859C26.5865 32.5572 26.7288 32.6023 26.8757 32.6187C27.0226 32.635 27.1713 32.6222 27.3133 32.5811C27.4552 32.5399 27.5877 32.4712 27.7031 32.3789C27.8185 32.2866 27.9146 32.1724 27.9859 32.0429C28.0572 31.9135 28.1023 31.7712 28.1187 31.6243C28.135 31.4774 28.1222 31.3287 28.0811 31.1867C28.0399 31.0448 27.9712 30.9123 27.8789 30.7969L24.84 27H30.375C30.9717 27 31.544 26.7629 31.966 26.341C32.3879 25.919 32.625 25.3467 32.625 24.75V7.875C32.625 7.27826 32.3879 6.70597 31.966 6.28401C31.544 5.86205 30.9717 5.625 30.375 5.625ZM30.375 24.75H5.625V7.875H30.375V24.75ZM14.625 16.875V20.25C14.625 20.5484 14.5065 20.8345 14.2955 21.0455C14.0845 21.2565 13.7984 21.375 13.5 21.375C13.2016 21.375 12.9155 21.2565 12.7045 21.0455C12.4935 20.8345 12.375 20.5484 12.375 20.25V16.875C12.375 16.5766 12.4935 16.2905 12.7045 16.0795C12.9155 15.8685 13.2016 15.75 13.5 15.75C13.7984 15.75 14.0845 15.8685 14.2955 16.0795C14.5065 16.2905 14.625 16.5766 14.625 16.875ZM19.125 14.625V20.25C19.125 20.5484 19.0065 20.8345 18.7955 21.0455C18.5845 21.2565 18.2984 21.375 18 21.375C17.7016 21.375 17.4155 21.2565 17.2045 21.0455C16.9935 20.8345 16.875 20.5484 16.875 20.25V14.625C16.875 14.3266 16.9935 14.0405 17.2045 13.8295C17.4155 13.6185 17.7016 13.5 18 13.5C18.2984 13.5 18.5845 13.6185 18.7955 13.8295C19.0065 14.0405 19.125 14.3266 19.125 14.625ZM23.625 12.375V20.25C23.625 20.5484 23.5065 20.8345 23.2955 21.0455C23.0845 21.2565 22.7984 21.375 22.5 21.375C22.2016 21.375 21.9155 21.2565 21.7045 21.0455C21.4935 20.8345 21.375 20.5484 21.375 20.25V12.375C21.375 12.0766 21.4935 11.7905 21.7045 11.5795C21.9155 11.3685 22.2016 11.25 22.5 11.25C22.7984 11.25 23.0845 11.3685 23.2955 11.5795C23.5065 11.7905 23.625 12.0766 23.625 12.375Z" fill="#2B7979"/>
</svg>
