<svg width="288" height="24" viewBox="0 0 288 24" fill="none" xmlns="http://www.w3.org/2000/svg">
<path d="M131.856 9.28439L132.033 7.84148C132.179 6.67323 132.944 5.84497 135.137 5.84497H135.231C135.36 5.84497 135.408 5.89292 135.39 6.04114L135.36 6.38116C135.343 6.52936 135.266 6.57732 135.137 6.57732H135.072C133.49 6.57732 132.961 7.13094 132.862 7.92431L132.685 9.28874H134.544C134.69 9.28874 134.75 9.33669 134.736 9.46746L134.69 9.79003C134.673 9.93826 134.607 9.98626 134.483 9.98626H132.625L131.344 20.4178C131.327 20.5659 131.267 20.6313 131.138 20.6313H130.674C130.544 20.6313 130.498 20.5659 130.515 20.4178L131.796 9.98626H130.756C130.626 9.98626 130.562 9.93826 130.579 9.79003L130.609 9.5285C130.626 9.38464 130.691 9.33234 130.816 9.33234L131.698 9.28439H131.856Z" fill="black"/>
<path d="M137.459 11.1341C137.602 9.94844 138.388 9.12451 140.58 9.12451C142.501 9.12451 143.268 9.82201 143.268 10.842C143.268 10.9379 143.268 10.9902 143.251 11.1341L142.721 15.3843C142.58 16.5526 141.81 17.3809 139.599 17.3809C137.677 17.3809 136.912 16.6834 136.912 15.6633C136.912 15.5805 136.912 15.4846 136.93 15.3887L137.459 11.1341ZM142.421 11.1864C142.438 11.0556 142.438 11.0251 142.438 10.9902C142.438 10.2928 141.925 9.83939 140.516 9.83939C138.946 9.83939 138.388 10.3887 138.294 11.1864L137.781 15.3233C137.764 15.4018 137.764 15.4714 137.764 15.5326C137.764 16.2474 138.246 16.6659 139.686 16.6659C141.256 16.6659 141.814 16.1298 141.908 15.319L142.421 11.1864Z" fill="black"/>
<path d="M151.111 9.33328L151.063 9.73872C151.045 9.852 150.982 9.91738 150.839 9.91738C149.605 9.94791 148.453 10.6977 148.022 11.0377L147.288 17.0578C147.27 17.1886 147.224 17.254 147.081 17.254H146.618C146.505 17.254 146.441 17.206 146.459 17.0578L147.386 9.45097C147.404 9.3202 147.451 9.25481 147.593 9.25481H147.993C148.121 9.25481 148.187 9.3202 148.169 9.45097L148.105 10.3272C148.616 9.90432 149.722 9.14148 150.939 9.14148C151.063 9.14148 151.127 9.20686 151.111 9.33328Z" fill="black"/>
<path d="M158.432 20.464C158.226 20.464 158.123 20.3594 158.123 20.1501V3.00101C158.123 2.79175 158.226 2.68713 158.432 2.68713H162.787C166.936 2.68713 168.175 4.2303 168.175 6.26605V8.0446C168.175 9.50929 167.531 10.6078 165.724 11.1571C167.916 11.6017 168.846 12.7525 168.846 14.4004V16.8066C168.846 18.8729 167.608 20.4683 163.458 20.4683H158.432V20.464ZM159.49 3.86413V10.7124H163.07C165.831 10.7124 166.812 9.61389 166.812 8.01845V6.44912C166.812 4.85366 165.805 3.85976 162.792 3.85976H159.49V3.86413ZM159.49 11.8372V19.287H163.458C166.502 19.287 167.478 18.2145 167.478 16.6192V14.4744C167.478 12.9313 166.498 11.8327 163.458 11.8327H159.49V11.8372Z" fill="black"/>
<path d="M176.529 16.7761C176.529 18.3716 177.535 19.47 180.549 19.47C183.567 19.47 184.573 18.3716 184.573 16.7761V3.001C184.573 2.79175 184.676 2.68713 184.883 2.68713H185.656C185.864 2.68713 185.941 2.79175 185.941 3.001V16.9853C185.941 19.0253 184.702 20.6689 180.553 20.6689C176.43 20.6689 175.165 19.0211 175.165 16.9853V3.001C175.165 2.79175 175.269 2.68713 175.475 2.68713H176.249C176.456 2.68713 176.533 2.79175 176.533 3.001V16.7761H176.529Z" fill="black"/>
<path d="M201.716 6.32479C201.716 4.75549 200.865 3.65696 197.877 3.65696C194.889 3.65696 194.033 4.75549 194.033 6.32479V7.29254C194.033 8.62645 194.963 9.25417 195.659 9.51573L200.607 11.425C201.898 11.922 203.188 12.9159 203.188 14.6944V16.9961C203.188 19.0363 201.949 20.6796 197.851 20.6796C193.753 20.6796 192.49 19.0319 192.49 16.9961V15.636C192.49 15.4006 192.593 15.296 192.799 15.296H193.548C193.753 15.296 193.857 15.4006 193.857 15.636V16.8392C193.857 18.4084 194.811 19.5071 197.829 19.5071C200.874 19.5071 201.85 18.4084 201.85 16.8392V14.9822C201.85 13.5698 200.715 12.942 199.708 12.5498L194.915 10.6665C193.883 10.2743 192.696 9.22802 192.696 7.58024V6.16786C192.696 4.12776 193.831 2.47998 197.877 2.47998C201.898 2.47998 203.058 4.12776 203.058 6.16786V7.44947C203.058 7.65871 202.981 7.76333 202.748 7.76333H202C201.794 7.76333 201.716 7.65871 201.716 7.44947V6.32479Z" fill="black"/>
<path d="M211.46 20.1501C211.46 20.3594 211.382 20.464 211.176 20.464H210.402C210.196 20.464 210.092 20.3594 210.092 20.1501V3.00101C210.092 2.79175 210.196 2.68713 210.402 2.68713H211.176C211.382 2.68713 211.46 2.79175 211.46 3.00101V20.1501Z" fill="black"/>
<path d="M229.945 20.1501C229.945 20.3594 229.867 20.464 229.662 20.464H228.965C228.81 20.464 228.732 20.4116 228.682 20.3069L221.307 7.00275C220.92 6.37502 220.507 5.51191 220.481 5.43343V20.1501C220.481 20.3594 220.404 20.464 220.198 20.464H219.501C219.295 20.464 219.191 20.3594 219.191 20.1501V3.00101C219.191 2.79175 219.295 2.68713 219.501 2.68713H220.198C220.327 2.68713 220.404 2.73945 220.456 2.81792L227.907 16.2268C228.139 16.6453 228.655 17.7176 228.655 17.7176V3.00101C228.655 2.79175 228.758 2.68713 228.965 2.68713H229.662C229.867 2.68713 229.945 2.79175 229.945 3.00101V20.1501Z" fill="black"/>
<path d="M237.652 20.464C237.472 20.464 237.369 20.3594 237.369 20.1501V3.00101C237.369 2.79175 237.472 2.68713 237.679 2.68713H246.471C246.678 2.68713 246.781 2.7656 246.781 3.00101V3.57642C246.781 3.81181 246.678 3.89028 246.471 3.89028H238.737V10.5293H246.007C246.213 10.5293 246.317 10.6078 246.317 10.8432V11.3925C246.317 11.6017 246.213 11.7063 246.007 11.7063H238.737V19.2607H246.781C246.988 19.2607 247.09 19.3393 247.09 19.5747V20.1501C247.09 20.3855 246.988 20.464 246.781 20.464H237.652Z" fill="black"/>
<path d="M262.054 6.32479C262.054 4.75549 261.204 3.65696 258.214 3.65696C255.222 3.65696 254.37 4.75549 254.37 6.32479V7.29254C254.37 8.62645 255.3 9.25417 255.996 9.51573L260.944 11.425C262.235 11.922 263.525 12.9159 263.525 14.6944V16.9961C263.525 19.0363 262.286 20.6796 258.188 20.6796C254.092 20.6796 252.827 19.0319 252.827 16.9961V15.636C252.827 15.4006 252.93 15.296 253.137 15.296H253.884C254.092 15.296 254.195 15.4006 254.195 15.636V16.8392C254.195 18.4084 255.148 19.5071 258.168 19.5071C261.211 19.5071 262.187 18.4084 262.187 16.8392V14.9822C262.187 13.5698 261.052 12.942 260.047 12.5498L255.252 10.6665C254.22 10.2743 253.034 9.22802 253.034 7.58024V6.16786C253.034 4.12776 254.168 2.47998 258.214 2.47998C262.235 2.47998 263.396 4.12776 263.396 6.16786V7.44947C263.396 7.65871 263.318 7.76333 263.086 7.76333H262.338C262.131 7.76333 262.054 7.65871 262.054 7.44947V6.32479Z" fill="black"/>
<path d="M278.302 6.32479C278.302 4.75549 277.451 3.65696 274.462 3.65696C271.469 3.65696 270.618 4.75549 270.618 6.32479V7.29254C270.618 8.62645 271.547 9.25417 272.244 9.51573L277.192 11.425C278.482 11.922 279.772 12.9159 279.772 14.6944V16.9961C279.772 19.0363 278.534 20.6796 274.436 20.6796C270.339 20.6796 269.075 19.0319 269.075 16.9961V15.636C269.075 15.4006 269.178 15.296 269.385 15.296H270.132C270.339 15.296 270.442 15.4006 270.442 15.636V16.8392C270.442 18.4084 271.396 19.5071 274.415 19.5071C277.459 19.5071 278.435 18.4084 278.435 16.8392V14.9822C278.435 13.5698 277.3 12.942 276.294 12.5498L271.5 10.6665C270.469 10.2743 269.281 9.22802 269.281 7.58024V6.16786C269.281 4.12776 270.416 2.47998 274.462 2.47998C278.482 2.47998 279.643 4.12776 279.643 6.16786V7.44947C279.643 7.65871 279.565 7.76333 279.333 7.76333H278.585C278.379 7.76333 278.302 7.65871 278.302 7.44947V6.32479Z" fill="black"/>
<path d="M108.425 0C107.974 0 107.617 0.370532 107.617 0.823888V6.56932H122.593L115.769 0H108.425Z" fill="#005EB8"/>
<path d="M123.137 8.31106C123.137 7.85336 122.78 7.48718 122.324 7.48718H116.662V22.6658L123.137 15.7565V8.31106Z" fill="#005EB8"/>
<path d="M114.944 23.2239C115.386 23.2239 115.756 22.8578 115.756 22.3999V16.6589H100.78L107.595 23.2239H114.944Z" fill="#005EB8"/>
<path d="M100.225 14.921C100.225 15.3743 100.591 15.736 101.038 15.736H106.705V0.557373L100.234 7.47106L100.225 14.921Z" fill="#005EB8"/>
<path d="M31.6838 2.77222V9.78621H22.0481V2.77222H18.5439V20.4531H22.0481V12.8549H31.6838V20.4531H35.2008V2.77222H31.6838Z" fill="black"/>
<path d="M78.3699 2.77222V20.4444H93.7669L91.8235 17.3363H81.8912V12.8549H91.5096V9.8559H81.8912V5.81057H91.8063L93.7197 2.77222H78.3699Z" fill="black"/>
<path d="M5.49498 2.77307C1.84456 2.77307 0 5.02242 0 8.30489V14.9004C0 18.6885 2.37772 20.4583 5.47778 20.4583L16.4892 20.454L14.4469 17.2238H6.15712C4.39427 17.2238 3.62891 16.5787 3.62891 14.5778V8.5926C3.62891 6.65712 4.27817 5.90297 6.20442 5.90297H14.5329L16.4936 2.77307H5.49498Z" fill="black"/>
<path d="M62.9724 2.7684C60.8612 2.7684 58.7028 4.05436 58.7028 7.35863V8.20431C58.7028 11.6481 60.7839 12.9602 62.8605 12.9733H70.1615C70.9225 12.9733 71.5374 13.0997 71.5374 14.3944V15.8983C71.5202 17.0666 70.9439 17.3325 70.14 17.3325H60.5345L58.5653 20.4449H70.3678C73.2141 20.4449 75.1405 19.0108 75.1405 15.6934V14.4772C75.1405 11.2732 73.3432 9.75622 70.5613 9.75622H63.5916C62.8176 9.75622 62.2801 9.54695 62.2801 8.38303V7.16246C62.2801 6.17292 62.6542 5.81112 63.5528 5.81112L72.6939 5.80676L74.6073 2.76404L62.9724 2.7684Z" fill="black"/>
<path d="M45.4 2.77222L37.1274 20.4444H41.0359L42.6482 16.8002H51.6347L53.2384 20.4444H57.1598L48.8786 2.77222H45.4ZM47.1285 6.44266L50.3104 13.7879H43.9726L47.1285 6.44266Z" fill="black"/>
<path d="M283.49 5.30661C283.49 4.94045 283.58 4.60042 283.762 4.27785C283.941 3.95962 284.191 3.70678 284.505 3.51934C284.82 3.33189 285.158 3.24036 285.524 3.24036C285.885 3.24036 286.221 3.33189 286.539 3.51498C286.853 3.69807 287.102 3.9509 287.287 4.26913C287.467 4.58734 287.557 4.93172 287.557 5.30225C287.557 5.66407 287.472 5.99973 287.295 6.31794C287.119 6.63617 286.874 6.889 286.56 7.07645C286.246 7.26826 285.899 7.35979 285.524 7.35979C285.15 7.35979 284.805 7.2639 284.492 7.07645C284.178 6.889 283.933 6.63617 283.757 6.31794C283.58 6.00845 283.49 5.66843 283.49 5.30661ZM283.774 5.30661C283.774 5.62484 283.851 5.9169 284.01 6.19153C284.169 6.46616 284.38 6.68413 284.651 6.84105C284.921 6.99799 285.214 7.07645 285.524 7.07645C285.838 7.07645 286.13 6.99799 286.396 6.83669C286.664 6.67976 286.878 6.46181 287.037 6.19153C287.197 5.92126 287.274 5.62484 287.274 5.30225C287.274 4.98403 287.197 4.68761 287.037 4.41735C286.878 4.14707 286.669 3.92912 286.401 3.76782C286.134 3.60653 285.842 3.52806 285.524 3.52806C285.209 3.52806 284.918 3.60653 284.651 3.76782C284.385 3.92475 284.169 4.14271 284.01 4.41298C283.856 4.69196 283.774 4.98839 283.774 5.30661ZM286.35 4.80966C286.35 4.95787 286.31 5.0843 286.234 5.19763C286.156 5.31098 286.048 5.3938 285.911 5.45048L286.555 6.53155H286.1L285.541 5.55945H285.176V6.53155H284.775V4.09041H285.481C285.782 4.09041 286.001 4.15143 286.139 4.26913C286.281 4.38683 286.35 4.56555 286.35 4.80966ZM285.176 5.22379H285.469C285.611 5.22379 285.726 5.18456 285.816 5.11045C285.902 5.03634 285.95 4.93608 285.95 4.82275C285.95 4.68761 285.911 4.58734 285.833 4.52631C285.757 4.4653 285.631 4.43914 285.464 4.43914H285.176V5.22379Z" fill="black"/>
</svg>
